HIERARCHY
ROOT Hips
{
	OFFSET 0.00000 0.00000 0.00000
	CHANNELS 6 Xposition Yposition Zposition Zrotation Yrotation Xrotation 
	JOINT LHipJoint
	{
		OFFSET 0 0 0
		CHANNELS 3 Zrotation Yrotation Xrotation
		JOINT LeftUpLeg
		{
			OFFSET 1.55766 -1.60504 1.11378
			CHANNELS 3 Zrotation Yrotation Xrotation
			JOINT LeftLeg
			{
				OFFSET 2.29047 -6.29302 0.00000
				CHANNELS 3 Zrotation Yrotation Xrotation
				JOINT LeftFoot
				{
					OFFSET 2.52265 -6.93093 0.00000
					CHANNELS 3 Zrotation Yrotation Xrotation
					JOINT LeftToeBase
					{
						OFFSET 0.17633 -0.48446 2.02656
						CHANNELS 3 Zrotation Yrotation Xrotation
						End Site
						{
							OFFSET 0.00000 -0.00000 1.04989
						}
					}
				}
			}
		}
	}
	JOINT RHipJoint
	{
		OFFSET 0 0 0
		CHANNELS 3 Zrotation Yrotation Xrotation
		JOINT RightUpLeg
		{
			OFFSET -1.48599 -1.60504 1.11378
			CHANNELS 3 Zrotation Yrotation Xrotation
			JOINT RightLeg
			{
				OFFSET -2.27280 -6.24448 0.00000
				CHANNELS 3 Zrotation Yrotation Xrotation
				JOINT RightFoot
				{
					OFFSET -2.50834 -6.89161 0.00000
					CHANNELS 3 Zrotation Yrotation Xrotation
					JOINT RightToeBase
					{
						OFFSET -0.26967 -0.74090 2.08741
						CHANNELS 3 Zrotation Yrotation Xrotation
						End Site
						{
							OFFSET -0.00000 -0.00000 1.10614
						}
					}
				}
			}
		}
	}
	JOINT LowerBack
	{
		OFFSET 0 0 0
		CHANNELS 3 Zrotation Yrotation Xrotation
		JOINT Spine
		{
			OFFSET 0.06481 2.02437 -0.08472
			CHANNELS 3 Zrotation Yrotation Xrotation
			JOINT Spine1
			{
				OFFSET 0.00015 1.96711 0.18069
				CHANNELS 3 Zrotation Yrotation Xrotation
				JOINT Neck
				{
					OFFSET 0 0 0
					CHANNELS 3 Zrotation Yrotation Xrotation
					JOINT Neck1
					{
						OFFSET -0.29961 1.68293 -0.13041
						CHANNELS 3 Zrotation Yrotation Xrotation
						JOINT Head
						{
							OFFSET 0.59697 1.61501 -0.14669
							CHANNELS 3 Zrotation Yrotation Xrotation
							End Site
							{
								OFFSET 0.22973 1.74906 -0.10148
							}
						}
					}
				}
				JOINT LeftShoulder
				{
					OFFSET 0 0 0
					CHANNELS 3 Zrotation Yrotation Xrotation
					JOINT LeftArm
					{
						OFFSET 3.37968 1.02893 0.31147
						CHANNELS 3 Zrotation Yrotation Xrotation
						JOINT LeftForeArm
						{
							OFFSET 5.19807 -0.00000 -0.00000
							CHANNELS 3 Zrotation Yrotation Xrotation
							JOINT LeftHand
							{
								OFFSET 3.09370 -0.00000 -0.00000
								CHANNELS 3 Zrotation Yrotation Xrotation
								JOINT LeftFingerBase
								{
									OFFSET 0 0 0
									CHANNELS 3 Zrotation Yrotation Xrotation
									JOINT LeftHandIndex1
									{
										OFFSET 0.67263 -0.00000 -0.00000
										CHANNELS 3 Zrotation Yrotation Xrotation
										End Site
										{
											OFFSET 0.54229 -0.00000 -0.00000
										}
									}
								}
								JOINT LThumb
								{
									OFFSET 0 0 0
									CHANNELS 3 Zrotation Yrotation Xrotation
									End Site
									{
										OFFSET 0.55057 -0.00000 0.55057
									}
								}
							}
						}
					}
				}
				JOINT RightShoulder
				{
					OFFSET 0 0 0
					CHANNELS 3 Zrotation Yrotation Xrotation
					JOINT RightArm
					{
						OFFSET -3.38254 0.96355 -0.16120
						CHANNELS 3 Zrotation Yrotation Xrotation
						JOINT RightForeArm
						{
							OFFSET -5.45222 -0.00000 -0.00000
							CHANNELS 3 Zrotation Yrotation Xrotation
							JOINT RightHand
							{
								OFFSET -3.01284 -0.00000 -0.00000
								CHANNELS 3 Zrotation Yrotation Xrotation
								JOINT RightFingerBase
								{
									OFFSET 0 0 0
									CHANNELS 3 Zrotation Yrotation Xrotation
									JOINT RightHandIndex1
									{
										OFFSET -0.62230 -0.00000 -0.00000
										CHANNELS 3 Zrotation Yrotation Xrotation
										End Site
										{
											OFFSET -0.50171 -0.00000 -0.00000
										}
									}
								}
								JOINT RThumb
								{
									OFFSET 0 0 0
									CHANNELS 3 Zrotation Yrotation Xrotation
									End Site
									{
										OFFSET -0.50937 -0.00000 0.50937
									}
								}
							}
						}
					}
				}
			}
		}
	}
}
MOTION
Frames: 9
Frame Time: .0083333
10.1697 15.8645 5.6126 -166.9790 -66.1749 174.6760 0.0000 0.0000 0.0000 -15.7721 -24.8877 -24.8097 6.8478 15.2024 48.2963 -3.1572 -30.0188 17.8179 4.3867 12.6579 38.1011 0.0000 0.0000 0.0000 11.5812 20.1118 -32.6606 -6.9142 -15.2592 48.5491 -0.9250 9.3097 -17.3947 -1.7483 8.3209 -23.6930 4.3824 3.2931 2.7163 -0.7431 4.5467 -5.6376 -3.6031 1.9328 -7.0162 -30.9187 -5.8076 2.4255 36.6709 -9.4437 -4.0959 18.6227 -5.3919 2.2046 0.0000 0.0000 0.0000 -72.8426 -16.1602 32.1615 132.5031 -51.9347 -95.8110 -0.0000 0.0000 -57.8088 29.8255 -8.1115 -4.6247 -7.1250 0.0000 -0.0000 2.1398 20.6532 -1.2484 0.0000 0.0000 0.0000 87.8901 -37.9807 46.3633 -21.1772 32.0346 -6.1437 0.0000 -0.0000 -11.6126 -7.2931 -8.7834 1.1196 7.1250 -0.0000 -0.0000 16.7679 -38.3093 2.8590
10.1675 15.8159 5.5596 -165.4050 -67.9218 173.1450 0.0000 0.0000 0.0000 -15.2701 -25.7395 -24.9574 6.9573 15.2959 48.7128 -3.1421 -30.3127 19.8884 4.9729 13.3532 40.7055 0.0000 0.0000 0.0000 11.0829 20.4862 -32.9569 -6.8042 -15.1648 48.1298 -0.8975 10.6741 -17.3981 -1.8091 8.4565 -24.1096 4.3798 3.4044 2.8041 -0.6842 4.7077 -5.6365 -3.5582 2.0143 -7.0566 -30.9331 -5.9591 2.7681 36.9570 -9.7265 -4.4008 18.7586 -5.5775 2.1990 0.0000 0.0000 0.0000 -73.2496 -17.3092 31.3004 133.5174 -51.4745 -96.6070 -0.0000 0.0000 -56.6959 29.7807 -7.8673 -4.4788 -7.1250 0.0000 -0.0000 2.1257 20.9367 -1.2266 0.0000 0.0000 0.0000 86.3707 -38.0979 49.3364 -20.8808 31.6889 -5.9872 0.0000 -0.0000 -9.6539 -5.9096 -7.5432 0.7785 7.1250 -0.0000 -0.0000 17.6052 -37.0226 3.5922
10.1650 15.7659 5.5065 -163.9090 -69.5206 171.7560 0.0000 0.0000 0.0000 -14.8275 -26.5244 -25.1718 7.0500 15.3738 49.0632 -3.0576 -30.4380 21.8842 5.5583 13.9862 43.1821 0.0000 0.0000 0.0000 10.4716 20.9036 -33.3880 -6.7239 -15.0949 47.8221 -0.8570 12.0236 -17.3734 -1.8866 8.6258 -24.6316 4.2801 3.5487 2.8095 -0.6590 4.8993 -5.6635 -3.4924 2.1149 -7.0813 -30.9379 -6.1134 3.0837 37.2533 -10.0160 -4.6659 18.8964 -5.7660 2.2134 -0.0000 -0.0000 0.0000 -73.6677 -18.3550 30.3959 134.7065 -50.9114 -97.5337 -0.0000 0.0000 -56.2128 29.6482 -7.6657 -4.3419 -7.1250 0.0000 -0.0000 2.0446 21.1786 -1.1686 -0.0000 -0.0000 0.0000 84.7827 -38.0928 52.4887 -20.5319 31.2779 -5.8050 0.0000 -0.0000 -7.8138 -4.3408 -6.3552 0.4814 7.1250 -0.0000 -0.0000 18.5914 -35.7920 4.3990
10.1614 15.7167 5.4532 -162.5550 -70.9962 170.5460 0.0000 0.0000 0.0000 -14.4793 -27.2463 -25.4076 7.1281 15.4388 49.3573 -2.9065 -30.3904 23.7428 6.1263 14.5496 45.4865 0.0000 0.0000 0.0000 9.7504 21.3395 -33.9042 -6.6669 -15.0449 47.6030 -0.8014 13.3729 -17.3087 -1.9480 8.7570 -25.0381 4.0780 3.7290 2.7409 -0.6652 5.1263 -5.7025 -3.4005 2.2382 -7.0793 -30.9530 -6.2746 3.3860 37.5594 -10.3196 -4.9065 19.0400 -5.9616 2.2455 0.0000 0.0000 0.0000 -74.1001 -19.3029 29.4768 136.0470 -50.2451 -98.5693 -0.0000 0.0000 -56.4253 29.4896 -7.5592 -4.2548 -7.1250 0.0000 -0.0000 1.9375 21.3136 -1.1014 0.0000 0.0000 0.0000 83.1468 -37.9509 55.8068 -20.1473 30.8194 -5.6066 0.0000 -0.0000 -6.3078 -2.6421 -5.2674 0.2427 7.1250 -0.0000 -0.0000 19.6858 -34.6664 5.2566
10.1563 15.6699 5.3996 -161.4010 -72.3739 169.5380 0.0000 0.0000 0.0000 -14.2528 -27.9227 -25.6122 7.1930 15.4923 49.6005 -2.7110 -30.2133 25.3919 6.6452 15.0257 47.5194 0.0000 0.0000 0.0000 8.9387 21.7666 -34.4455 -6.6253 -15.0080 47.4424 -0.7342 14.6964 -17.2248 -1.9990 8.8640 -25.3709 3.8012 3.9383 2.6402 -0.7288 5.3827 -5.7514 -3.3269 2.3785 -7.0693 -30.9470 -6.4398 3.6906 37.8761 -10.6355 -5.1280 19.1832 -6.1656 2.2883 0.0000 0.0000 0.0000 -74.4970 -20.1405 28.5537 137.4807 -49.4936 -99.6655 -0.0000 0.0000 -57.2480 29.2994 -7.5614 -4.2232 -7.1250 0.0000 -0.0000 1.7997 21.3267 -1.0225 0.0000 0.0000 0.0000 81.5418 -37.6815 59.3008 -19.7425 30.3309 -5.4007 0.0000 -0.0000 -5.3076 -0.8945 -4.3757 0.0683 7.1250 -0.0000 -0.0000 20.8421 -33.7368 6.1054
10.1490 15.6276 5.3461 -160.4870 -73.6776 168.7450 0.0000 0.0000 0.0000 -14.1667 -28.5795 -25.7371 7.2434 15.5335 49.7890 -2.5207 -30.0165 26.7332 7.0769 15.3963 49.1644 0.0000 0.0000 0.0000 8.0525 22.1761 -34.9467 -6.5898 -14.9765 47.3052 -0.6524 16.0054 -17.1009 -2.0226 8.9129 -25.5234 3.4650 4.1713 2.5328 -0.8540 5.6635 -5.8040 -3.2860 2.5325 -7.0587 -30.9068 -6.6053 4.0182 38.1964 -10.9607 -5.3403 19.3206 -6.3783 2.3323 0.0000 0.0000 0.0000 -74.8343 -20.8505 27.6301 138.9429 -48.6839 -100.7705 -0.0000 0.0000 -58.4890 29.0950 -7.6858 -4.2563 -7.1250 0.0000 -0.0000 1.6436 21.2018 -0.9383 0.0000 0.0000 0.0000 80.0100 -37.2948 62.9588 -19.3323 29.8295 -5.1951 0.0000 -0.0000 -4.9557 0.8624 -3.7599 -0.0566 7.1250 -0.0000 -0.0000 22.0482 -33.0735 6.8899
10.1393 15.5909 5.2928 -159.7580 -74.9161 168.0960 0.0000 0.0000 0.0000 -14.1962 -29.2383 -25.7497 7.2782 15.5617 49.9187 -2.3453 -29.8193 27.8161 7.4314 15.6847 50.4877 0.0000 0.0000 0.0000 7.1408 22.5739 -35.3538 -6.5522 -14.9429 47.1597 -0.5571 17.2769 -16.9360 -2.0151 8.8975 -25.4752 3.1096 4.4340 2.4341 -1.0318 5.9808 -5.8487 -3.2918 2.7046 -7.0408 -30.8474 -6.7785 4.3854 38.5209 -11.3057 -5.5647 19.4550 -6.6063 2.3742 -0.0000 -0.0000 0.0000 -75.1095 -21.4404 26.7341 140.3605 -47.8549 -101.8285 -0.0000 0.0000 -59.8908 28.8797 -7.9345 -4.3540 -7.1250 0.0000 -0.0000 1.4715 20.9372 -0.8488 -0.0000 -0.0000 0.0000 78.6042 -36.7974 66.7120 -18.9226 29.3224 -4.9929 0.0000 -0.0000 -5.2663 2.5649 -3.4882 -0.1562 7.1250 -0.0000 -0.0000 23.2760 -32.7347 7.5419
10.1274 15.5607 5.2410 -159.1940 -76.1008 167.5740 0.0000 0.0000 0.0000 -14.3229 -29.9189 -25.6552 7.2960 15.5761 49.9850 -2.2076 -29.6760 28.6389 7.7003 15.8943 51.4758 0.0000 0.0000 0.0000 6.2154 22.9658 -35.6497 -6.5061 -14.9014 46.9804 -0.4397 18.5442 -16.6783 -1.9600 8.7822 -25.1162 2.7680 4.7191 2.3487 -1.2638 6.3267 -5.8883 -3.3638 2.8887 -7.0177 -30.7531 -6.9483 4.7833 38.8361 -11.6502 -5.7910 19.5779 -6.8377 2.4073 -0.0000 0.0000 0.0000 -75.3074 -21.8907 25.8614 141.6771 -47.0443 -102.7985 -0.0000 0.0000 -61.2037 28.6360 -8.2915 -4.5023 -7.1250 0.0000 -0.0000 1.2722 20.5533 -0.7448 -0.0000 0.0000 0.0000 77.3776 -36.1937 70.4454 -18.4957 28.7872 -4.7855 0.0000 -0.0000 -6.1307 4.2334 -3.5926 -0.2658 7.1250 -0.0000 -0.0000 24.5589 -32.7402 8.0276
10.1135 15.5371 5.1905 -158.7530 -77.2230 167.1430 0.0000 0.0000 0.0000 -14.5111 -30.6125 -25.4674 7.2959 15.5761 49.9847 -2.0922 -29.5589 29.3014 7.9057 16.0495 52.2223 0.0000 0.0000 0.0000 5.3136 23.3662 -35.8321 -6.4475 -14.8484 46.7524 -0.3109 19.7516 -16.3802 -1.8961 8.6462 -24.6948 2.4460 5.0271 2.2731 -1.5268 6.7031 -5.9204 -3.4807 3.0862 -6.9858 -30.6239 -7.1214 5.2087 39.1200 -11.9967 -6.0280 19.6752 -7.0718 2.4280 -0.0000 0.0000 0.0000 -75.4391 -22.1927 25.0165 142.8608 -46.2806 -103.6595 -0.0000 0.0000 -62.2152 28.3944 -8.7306 -4.6908 -7.1250 0.0000 -0.0000 1.0696 20.0783 -0.6375 -0.0000 0.0000 0.0000 76.3216 -35.4948 74.0856 -18.0603 28.2342 -4.5777 0.0000 -0.0000 -7.3925 5.8891 -4.0492 -0.4173 7.1250 -0.0000 -0.0000 25.9189 -33.0588 8.3376
